<?xml version="1.0" encoding="UTF-8" standalone="no"?>
<svg
   xmlns:dc="http://purl.org/dc/elements/1.1/"
   xmlns:cc="http://creativecommons.org/ns#"
   xmlns:rdf="http://www.w3.org/1999/02/22-rdf-syntax-ns#"
   xmlns:svg="http://www.w3.org/2000/svg"
   xmlns="http://www.w3.org/2000/svg"
   id="svg9381"
   version="1.1"
   viewBox="0 0 91.848213 29.104166"
   height="29.104166mm"
   width="91.848213mm">
  <defs
     id="defs9375" />
  <metadata
     id="metadata9378">
    <rdf:RDF>
      <cc:Work
         rdf:about="">
        <dc:format>image/svg+xml</dc:format>
        <dc:type
           rdf:resource="http://purl.org/dc/dcmitype/StillImage" />
        <dc:title></dc:title>
      </cc:Work>
    </rdf:RDF>
  </metadata>
  <g
     transform="translate(-50.081845,-94.971727)"
     id="layer1">
    <g
       transform="translate(42.316843,76.086448)"
       id="g91824"
       style="display:inline">
      <g
         aria-label="quicksilver"
         style="font-style:normal;font-weight:normal;font-size:6.3499999px;line-height:1.25;font-family:sans-serif;letter-spacing:0px;word-spacing:0px;fill:#2b2b2b;fill-opacity:1;stroke:none;stroke-width:0.26458332"
         id="g52140"
         transform="translate(-29.569642,-93.261449)">
        <path
           d="m 43.443807,127.92193 c 0,1.2485 0.463021,2.48047 1.372526,3.38171 0.802018,0.78548 1.893424,1.23196 3.017903,1.23196 1.149284,0 2.017448,-0.5209 2.728516,-1.34772 v 3.48092 c 0,0.45476 0.37207,0.82683 0.826823,0.82683 0.454752,0 0.826823,-0.37207 0.826823,-0.82683 v -10.55852 c 0,-0.45476 -0.372071,-0.82683 -0.826823,-0.82683 -0.454753,0 -0.661459,0.38034 -0.727604,0.82683 l -0.09922,0.66972 c -0.628386,-0.90123 -1.761133,-1.45521 -2.786393,-1.45521 -2.488737,0 -4.332552,2.15801 -4.332552,4.59714 z m 4.339639,-2.32928 c 0.582777,0 0.822339,-0.50006 1.205481,-0.29762 0.277134,0.14644 0.530511,0.33907 0.738734,0.56811 0.496094,0.5457 0.777213,1.33119 0.777213,2.10013 0,1.5875 -1.124479,2.94349 -2.703711,2.94349 -1.562695,0 -2.711979,-1.44694 -2.711979,-2.98483 0,-1.17114 0.654632,-2.25688 1.636922,-2.71468 0.314552,-0.1466 0.473715,0.3854 1.05734,0.3854 z"
           style="font-style:normal;font-variant:normal;font-weight:bold;font-stretch:normal;font-size:16.93333244px;font-family:Manjari;-inkscape-font-specification:Manjari;fill:#2b2b2b;fill-opacity:1;stroke-width:0.26458332"
           id="path52118" />
        <path
           d="m 59.599926,131.24576 0.14056,0.49609 c 0.124023,0.44649 0.347266,0.82682 0.802018,0.82682 0.454753,0 0.711068,-0.37207 0.711068,-0.82682 l -0.01654,-7.5985 c 0,-0.46302 -0.363802,-0.83509 -0.826823,-0.83509 -0.454752,0 -0.826822,0.37207 -0.826822,0.82682 l 0.0083,3.29902 c 0.0083,2.11667 -0.901237,3.45612 -2.530078,3.45612 -0.677995,0 -1.116211,-0.44648 -1.331185,-0.93431 -0.190169,-0.42168 -0.23151,-0.98391 -0.23151,-1.62884 v -4.17545 c 0,-0.45475 -0.372071,-0.82683 -0.826823,-0.82683 -0.454753,0 -0.826823,0.37208 -0.826823,0.82683 v 4.17545 c 0,0.69453 0.01654,1.50482 0.37207,2.30684 0.454753,1.01699 1.413867,1.90996 2.860807,1.90996 1.107943,0 1.926498,-0.71934 2.52181,-1.29811 z"
           style="font-style:normal;font-variant:normal;font-weight:bold;font-stretch:normal;font-size:16.93333244px;font-family:Manjari;-inkscape-font-specification:Manjari;fill:#2b2b2b;fill-opacity:1;stroke-width:0.26458332"
           id="path52120" />
        <path
           d="m 63.725772,122.45663 c 0.454752,0 0.768945,-0.40514 0.768945,-0.83509 l -0.0083,-0.49609 c -0.0083,-0.44649 -0.363802,-0.81856 -0.826823,-0.81856 -0.347266,0 -0.818555,0.28939 -0.818555,0.7028 l 0.01654,0.62839 c 0.0083,0.46302 0.355534,0.81855 0.868164,0.81855 z m -0.892969,1.5627 0.01654,7.73079 c 0,0.43822 0.363802,0.80202 0.826822,0.80202 0.454753,0 0.826823,-0.35554 0.826823,-0.79375 l -0.01654,-7.65638 v -0.008 c 0,-0.47129 -0.396875,-0.78548 -0.876432,-0.78548 -0.33073,0 -0.777214,0.29765 -0.777214,0.71107 z"
           style="font-style:normal;font-variant:normal;font-weight:bold;font-stretch:normal;font-size:16.93333244px;font-family:Manjari;-inkscape-font-specification:Manjari;fill:#2b2b2b;fill-opacity:1;stroke-width:0.26458332"
           id="path52122" />
        <path
           d="m 65.784561,127.90539 c 0,2.48874 1.876888,4.67155 4.382161,4.67155 2.662974,0 -0.925563,3.12513 1.407434,3.12513 1.856179,0 -1.292819,-1.6034 1.028706,-3.92493 0.439819,-0.43982 0.89636,-0.83979 1.168808,-1.34167 0.05788,-0.10749 0.107487,-0.28939 0.107487,-0.40514 0,-0.45475 -0.37207,-0.82682 -0.826823,-0.82682 -0.272851,0 -0.603581,0.19843 -0.735872,0.43821 -0.37207,0.68626 -1.141016,1.28158 -2.14974,1.28158 -1.562695,0 -2.728515,-1.43867 -2.728515,-3.01791 0,-1.54616 1.132747,-2.95175 2.645833,-2.95175 1.066602,0 1.86862,0.68626 2.182812,1.48001 0.115756,0.29766 0.454753,0.53743 0.768946,0.53743 0.454752,0 0.826823,-0.37207 0.826823,-0.82682 0,-0.091 -0.02481,-0.23151 -0.05788,-0.31419 -0.537435,-1.35599 -1.909961,-2.53008 -3.720703,-2.53008 -2.447396,0 -4.299479,2.16628 -4.299479,4.6054 z"
           style="font-style:normal;font-variant:normal;font-weight:bold;font-stretch:normal;font-size:16.93333244px;font-family:Manjari;-inkscape-font-specification:Manjari;fill:#2b2b2b;fill-opacity:1;stroke-width:0.26458332"
           id="path52124" />
        <path
           d="m 75.169,121.13371 v 10.55853 c 0,0.45476 0.37207,0.82683 0.826823,0.82683 0.454752,0 0.826823,-0.37207 0.826823,-0.82683 v -2.26549 l 0.702799,-0.72761 2.66237,3.50573 c 0.14056,0.1819 0.429948,0.339 0.661458,0.339 0.454753,0 0.826823,-0.37207 0.826823,-0.82682 0,-0.1571 -0.07441,-0.38861 -0.173633,-0.51263 l -2.819466,-3.70417 2.678906,-2.78639 c 0.132292,-0.13229 0.239779,-0.39688 0.239779,-0.58705 0,-0.45475 -0.37207,-0.82682 -0.826823,-0.82682 -0.214974,0 -0.471289,0.11576 -0.603581,0.26458 l -3.348632,3.48093 v -5.91179 c 0,-0.45475 -0.372071,-0.82682 -0.826823,-0.82682 -0.454753,0 -0.826823,0.37207 -0.826823,0.82682 z"
           style="font-style:normal;font-variant:normal;font-weight:bold;font-stretch:normal;font-size:16.93333244px;font-family:Manjari;-inkscape-font-specification:Manjari;fill:#2b2b2b;fill-opacity:1;stroke-width:0.26458332"
           id="path52126" />
        <path
           d="m 87.066982,123.29172 c -1.852083,0 -4.018359,0.84336 -4.018359,2.836 0,1.09611 0.613015,1.70868 1.466753,2.07292 1.430215,0.61019 0.677292,1.88826 1.492666,1.88826 0.772424,0 0.08255,-1.44815 1.480619,-1.29881 0.760677,0.0827 1.901693,0.0992 1.901693,0.82683 0,0.94258 -1.314648,1.24023 -2.298568,1.24023 -1.248502,0 -2.174544,-0.35553 -2.604492,-1.19062 -0.124023,-0.25632 -0.46302,-0.46302 -0.74414,-0.46302 -0.454753,0 -0.826823,0.37207 -0.826823,0.82682 0,0.11575 0.04961,0.28939 0.09922,0.38861 0.702799,1.36425 2.290299,2.09186 4.084505,2.09186 1.95957,0 3.943945,-0.8847 3.943945,-2.88561 0,-1.86862 -1.761133,-2.30684 -3.381706,-2.48047 -0.843359,-0.091 -2.960026,-0.16537 -2.960026,-1.017 0,-0.86816 1.480013,-1.18235 2.356446,-1.18235 1.000455,0 1.752864,0.34726 2.116666,1.02526 0.124024,0.24805 0.454753,0.45475 0.735872,0.45475 0.454753,0 0.826823,-0.37207 0.826823,-0.82682 0,-0.11576 -0.04134,-0.29766 -0.09922,-0.39688 -0.620118,-1.16582 -2.000912,-1.90996 -3.571874,-1.90996 z"
           style="font-style:normal;font-variant:normal;font-weight:bold;font-stretch:normal;font-size:16.93333244px;font-family:Manjari;-inkscape-font-specification:Manjari;fill:#2b2b2b;fill-opacity:1;stroke-width:0.26458332"
           id="path52128" />
        <path
           d="m 93.55754,122.45663 c 0.454752,0 0.768945,-0.40514 0.768945,-0.83509 l -0.0083,-0.49609 c -0.0083,-0.44649 -0.363802,-0.81856 -0.826823,-0.81856 -0.347266,0 -0.818555,0.28939 -0.818555,0.7028 l 0.01654,0.62839 c 0.0083,0.46302 0.355534,0.81855 0.868164,0.81855 z m -0.892969,1.5627 0.01654,7.73079 c 0,0.43822 0.363802,0.80202 0.826822,0.80202 0.454753,0 0.826823,-0.35554 0.826823,-0.79375 l -0.01654,-7.65638 v -0.008 c 0,-0.47129 -0.396875,-0.78548 -0.876432,-0.78548 -0.33073,0 -0.777214,0.29765 -0.777214,0.71107 z"
           style="font-style:normal;font-variant:normal;font-weight:bold;font-stretch:normal;font-size:16.93333244px;font-family:Manjari;-inkscape-font-specification:Manjari;fill:#2b2b2b;fill-opacity:1;stroke-width:0.26458332"
           id="path52130" />
        <path
           d="m 96.691199,120.29862 c -0.446484,0 -0.785482,0.40515 -0.785482,0.82683 v 10.55852 c 0,0.48783 0.396875,0.82683 0.876432,0.82683 0.338998,0 0.777214,-0.29766 0.777214,-0.73588 v -10.64947 c 0.0083,-0.40515 -0.338997,-0.82683 -0.868164,-0.82683 z"
           style="font-style:normal;font-variant:normal;font-weight:bold;font-stretch:normal;font-size:16.93333244px;font-family:Manjari;-inkscape-font-specification:Manjari;fill:#2b2b2b;fill-opacity:1;stroke-width:0.26458332"
           id="path52132" />
        <path
           d="m 106.05083,123.30826 c -0.34726,0 -0.64492,0.15709 -0.79375,0.47956 l -2.68717,5.88697 -2.40605,-5.8539 c -0.14056,-0.339 -0.454757,-0.51263 -0.8599,-0.51263 -0.372071,0 -0.735873,0.41341 -0.735873,0.76894 0,0.14883 0.01654,0.28112 0.06615,0.38861 l 3.125383,7.54889 c 0.12403,0.32246 0.38861,0.50437 0.74414,0.50437 0.339,0 0.62012,-0.17364 0.76068,-0.47129 l 0.69477,-1.50313 0.59229,-1.28144 0.76262,-1.64995 1.43951,-3.11438 c 0.0579,-0.11575 0.0827,-0.26458 0.0827,-0.42168 0,-0.3886 -0.38861,-0.76894 -0.78549,-0.76894 z"
           style="font-style:normal;font-variant:normal;font-weight:bold;font-stretch:normal;font-size:16.93333244px;font-family:Manjari;-inkscape-font-specification:Manjari;fill:#2b2b2b;fill-opacity:1;stroke-width:0.26458332"
           id="path52134" />
        <path
           d="m 111.47479,123.33306 c -2.41432,0 -4.31601,2.14147 -4.31601,4.53926 0,2.48874 1.91823,4.64675 4.45657,4.64675 1.57097,0 2.80293,-0.85163 3.4892,-1.85209 0.0827,-0.11575 0.14883,-0.33073 0.14883,-0.47129 0,-0.45475 -0.37208,-0.83509 -0.82683,-0.83509 -0.24804,0 -0.55397,0.16537 -0.68626,0.37207 -0.42168,0.61185 -1.20716,1.14929 -2.14974,1.14929 -1.32292,0 -2.41432,-1.09141 -2.69544,-2.28204 l 5.77949,-0.008 c 0.40514,0 0.77721,-0.32246 0.82682,-0.72761 0.0165,-0.15709 0.0248,-0.31419 0.0248,-0.47129 0,-2.24895 -1.86035,-4.0597 -4.05144,-4.0597 z m 2.34818,3.60495 -4.86999,0.008 c 0.32247,-1.05007 1.32292,-1.95957 2.52181,-1.95957 1.17409,0 2.13321,0.86816 2.34818,1.9513 z"
           style="font-style:normal;font-variant:normal;font-weight:bold;font-stretch:normal;font-size:16.93333244px;font-family:Manjari;-inkscape-font-specification:Manjari;fill:#2b2b2b;fill-opacity:1;stroke-width:0.26458332"
           id="path52136" />
        <path
           d="m 122.33098,124.35006 c 0,-0.88471 -0.81028,-1.05007 -1.93476,-1.05007 -0.91778,0 -1.80248,0.83509 -2.01745,1.29811 l -0.0827,-0.59531 c -0.14056,-0.5209 -0.53744,-0.71107 -0.79375,-0.71107 -0.42995,0 -0.69453,0.35554 -0.69453,0.85163 v 7.61504 c 0,0.49609 0.31419,0.80202 0.82682,0.80202 0.51263,0 0.82682,-0.30593 0.82682,-0.79375 v -4.26641 c 0,-1.52962 0.47956,-2.74505 1.9265,-2.74505 0.2562,0 0.52183,0.10383 0.76161,0.19551 0.64647,0.24718 -0.17199,2.0631 0.65984,2.0631 0.48793,0 -0.30167,-1.57503 0.30031,-2.09617 0.14231,-0.1232 0.22127,-0.31136 0.22127,-0.56758 z"
           style="font-style:normal;font-variant:normal;font-weight:bold;font-stretch:normal;font-size:16.93333244px;font-family:Manjari;-inkscape-font-specification:Manjari;fill:#2b2b2b;fill-opacity:1;stroke-width:0.26458332"
           id="path52138" />
      </g>
    </g>
  </g>
</svg>
